<?xml version="1.0" encoding="utf-8" standalone="no"?>
<!DOCTYPE svg PUBLIC "-//W3C//DTD SVG 1.1//EN"
  "http://www.w3.org/Graphics/SVG/1.1/DTD/svg11.dtd">
<svg xmlns:xlink="http://www.w3.org/1999/xlink" width="385.511811pt" height="205.649252pt" viewBox="0 0 385.511811 205.649252" xmlns="http://www.w3.org/2000/svg" version="1.1">
 <metadata>
  <rdf:RDF xmlns:dc="http://purl.org/dc/elements/1.1/" xmlns:cc="http://creativecommons.org/ns#" xmlns:rdf="http://www.w3.org/1999/02/22-rdf-syntax-ns#">
   <cc:Work>
    <dc:type rdf:resource="http://purl.org/dc/dcmitype/StillImage"/>
    <dc:date>2026-08-31T09:28:54.919984</dc:date>
    <dc:format>image/svg+xml</dc:format>
    <dc:creator>
     <cc:Agent>
      <dc:title>Matplotlib v3.10.8, https://matplotlib.org/</dc:title>
     </cc:Agent>
    </dc:creator>
   </cc:Work>
  </rdf:RDF>
 </metadata>
 <defs>
  <style type="text/css">*{stroke-linejoin: round; stroke-linecap: butt}</style>
 </defs>
 <g id="figure_1">
  <g id="patch_1">
   <path d="M 0 205.649252 
L 385.511811 205.649252 
L 385.511811 0 
L 0 0 
z
" style="fill: #ffffff"/>
  </g>
  <g id="axes_1">
   <g id="patch_2">
    <path d="M 54.491204 177.889252 
L 353.262857 177.889252 
L 353.262857 14.625 
L 54.491204 14.625 
z
" style="fill: #ffffff"/>
   </g>
   <g id="matplotlib.axis_1">
    <g id="xtick_1">
     <g id="line2d_1">
      <path d="M 59.389099 177.889252 
L 59.389099 14.625 
" clip-path="url(#pd133885b48)" style="fill: none; stroke: #bfbfbf; stroke-opacity: 0.22; stroke-width: 0.3; stroke-linecap: square"/>
     </g>
     <g id="line2d_2">
      <defs>
       <path id="m09eebc3929" d="M 0 0 
L 0 2.5 
" style="stroke: #000000; stroke-width: 0.6"/>
      </defs>
      <g>
       <use xlink:href="#m09eebc3929" x="59.389099" y="177.889252" style="stroke: #000000; stroke-width: 0.6"/>
      </g>
     </g>
     <g id="text_1">
      <text style="font-size: 8px; font-family: 'Times New Roman', 'STIXGeneral', 'DejaVu Serif', 'SimSun', 'STSong', 'STZhongsong', 'Microsoft YaHei', 'SimHei'; text-anchor: middle" x="59.389099" y="189.444252" transform="rotate(-0 59.389099 189.444252)">0</text>
     </g>
    </g>
    <g id="xtick_2">
     <g id="line2d_3">
      <path d="M 100.204899 177.889252 
L 100.204899 14.625 
" clip-path="url(#pd133885b48)" style="fill: none; stroke: #bfbfbf; stroke-opacity: 0.22; stroke-width: 0.3; stroke-linecap: square"/>
     </g>
     <g id="line2d_4">
      <g>
       <use xlink:href="#m09eebc3929" x="100.204899" y="177.889252" style="stroke: #000000; stroke-width: 0.6"/>
      </g>
     </g>
     <g id="text_2">
      <text style="font-size: 8px; font-family: 'Times New Roman', 'STIXGeneral', 'DejaVu Serif', 'SimSun', 'STSong', 'STZhongsong', 'Microsoft YaHei', 'SimHei'; text-anchor: middle" x="100.204899" y="189.444252" transform="rotate(-0 100.204899 189.444252)">20</text>
     </g>
    </g>
    <g id="xtick_3">
     <g id="line2d_5">
      <path d="M 141.020699 177.889252 
L 141.020699 14.625 
" clip-path="url(#pd133885b48)" style="fill: none; stroke: #bfbfbf; stroke-opacity: 0.22; stroke-width: 0.3; stroke-linecap: square"/>
     </g>
     <g id="line2d_6">
      <g>
       <use xlink:href="#m09eebc3929" x="141.020699" y="177.889252" style="stroke: #000000; stroke-width: 0.6"/>
      </g>
     </g>
     <g id="text_3">
      <text style="font-size: 8px; font-family: 'Times New Roman', 'STIXGeneral', 'DejaVu Serif', 'SimSun', 'STSong', 'STZhongsong', 'Microsoft YaHei', 'SimHei'; text-anchor: middle" x="141.020699" y="189.444252" transform="rotate(-0 141.020699 189.444252)">40</text>
     </g>
    </g>
    <g id="xtick_4">
     <g id="line2d_7">
      <path d="M 181.836498 177.889252 
L 181.836498 14.625 
" clip-path="url(#pd133885b48)" style="fill: none; stroke: #bfbfbf; stroke-opacity: 0.22; stroke-width: 0.3; stroke-linecap: square"/>
     </g>
     <g id="line2d_8">
      <g>
       <use xlink:href="#m09eebc3929" x="181.836498" y="177.889252" style="stroke: #000000; stroke-width: 0.6"/>
      </g>
     </g>
     <g id="text_4">
      <text style="font-size: 8px; font-family: 'Times New Roman', 'STIXGeneral', 'DejaVu Serif', 'SimSun', 'STSong', 'STZhongsong', 'Microsoft YaHei', 'SimHei'; text-anchor: middle" x="181.836498" y="189.444252" transform="rotate(-0 181.836498 189.444252)">60</text>
     </g>
    </g>
    <g id="xtick_5">
     <g id="line2d_9">
      <path d="M 222.652298 177.889252 
L 222.652298 14.625 
" clip-path="url(#pd133885b48)" style="fill: none; stroke: #bfbfbf; stroke-opacity: 0.22; stroke-width: 0.3; stroke-linecap: square"/>
     </g>
     <g id="line2d_10">
      <g>
       <use xlink:href="#m09eebc3929" x="222.652298" y="177.889252" style="stroke: #000000; stroke-width: 0.6"/>
      </g>
     </g>
     <g id="text_5">
      <text style="font-size: 8px; font-family: 'Times New Roman', 'STIXGeneral', 'DejaVu Serif', 'SimSun', 'STSong', 'STZhongsong', 'Microsoft YaHei', 'SimHei'; text-anchor: middle" x="222.652298" y="189.444252" transform="rotate(-0 222.652298 189.444252)">80</text>
     </g>
    </g>
    <g id="xtick_6">
     <g id="line2d_11">
      <path d="M 263.468098 177.889252 
L 263.468098 14.625 
" clip-path="url(#pd133885b48)" style="fill: none; stroke: #bfbfbf; stroke-opacity: 0.22; stroke-width: 0.3; stroke-linecap: square"/>
     </g>
     <g id="line2d_12">
      <g>
       <use xlink:href="#m09eebc3929" x="263.468098" y="177.889252" style="stroke: #000000; stroke-width: 0.6"/>
      </g>
     </g>
     <g id="text_6">
      <text style="font-size: 8px; font-family: 'Times New Roman', 'STIXGeneral', 'DejaVu Serif', 'SimSun', 'STSong', 'STZhongsong', 'Microsoft YaHei', 'SimHei'; text-anchor: middle" x="263.468098" y="189.444252" transform="rotate(-0 263.468098 189.444252)">100</text>
     </g>
    </g>
    <g id="xtick_7">
     <g id="line2d_13">
      <path d="M 304.283897 177.889252 
L 304.283897 14.625 
" clip-path="url(#pd133885b48)" style="fill: none; stroke: #bfbfbf; stroke-opacity: 0.22; stroke-width: 0.3; stroke-linecap: square"/>
     </g>
     <g id="line2d_14">
      <g>
       <use xlink:href="#m09eebc3929" x="304.283897" y="177.889252" style="stroke: #000000; stroke-width: 0.6"/>
      </g>
     </g>
     <g id="text_7">
      <text style="font-size: 8px; font-family: 'Times New Roman', 'STIXGeneral', 'DejaVu Serif', 'SimSun', 'STSong', 'STZhongsong', 'Microsoft YaHei', 'SimHei'; text-anchor: middle" x="304.283897" y="189.444252" transform="rotate(-0 304.283897 189.444252)">120</text>
     </g>
    </g>
    <g id="xtick_8">
     <g id="line2d_15">
      <path d="M 345.099697 177.889252 
L 345.099697 14.625 
" clip-path="url(#pd133885b48)" style="fill: none; stroke: #bfbfbf; stroke-opacity: 0.22; stroke-width: 0.3; stroke-linecap: square"/>
     </g>
     <g id="line2d_16">
      <g>
       <use xlink:href="#m09eebc3929" x="345.099697" y="177.889252" style="stroke: #000000; stroke-width: 0.6"/>
      </g>
     </g>
     <g id="text_8">
      <text style="font-size: 8px; font-family: 'Times New Roman', 'STIXGeneral', 'DejaVu Serif', 'SimSun', 'STSong', 'STZhongsong', 'Microsoft YaHei', 'SimHei'; text-anchor: middle" x="345.099697" y="189.444252" transform="rotate(-0 345.099697 189.444252)">140</text>
     </g>
    </g>
    <g id="text_9">
     <text style="font-size: 9px; font-family: 'Times New Roman', 'STIXGeneral', 'DejaVu Serif', 'SimSun', 'STSong', 'STZhongsong', 'Microsoft YaHei', 'SimHei'; text-anchor: middle" x="203.87703" y="201.527221" transform="rotate(-0 203.87703 201.527221)">迭代代数</text>
    </g>
   </g>
   <g id="matplotlib.axis_2">
    <g id="ytick_1">
     <g id="line2d_17">
      <path d="M 54.491204 171.206271 
L 353.262857 171.206271 
" clip-path="url(#pd133885b48)" style="fill: none; stroke: #bfbfbf; stroke-opacity: 0.22; stroke-width: 0.3; stroke-linecap: square"/>
     </g>
     <g id="line2d_18">
      <defs>
       <path id="me76de6190f" d="M 0 0 
L -2.5 0 
" style="stroke: #000000; stroke-width: 0.6"/>
      </defs>
      <g>
       <use xlink:href="#me76de6190f" x="54.491204" y="171.206271" style="stroke: #000000; stroke-width: 0.6"/>
      </g>
     </g>
     <g id="text_10">
      <text style="font-size: 8px; font-family: 'Times New Roman', 'STIXGeneral', 'DejaVu Serif', 'SimSun', 'STSong', 'STZhongsong', 'Microsoft YaHei', 'SimHei'; text-anchor: end" x="48.491204" y="173.983771" transform="rotate(-0 48.491204 173.983771)">4</text>
     </g>
    </g>
    <g id="ytick_2">
     <g id="line2d_19">
      <path d="M 54.491204 138.780568 
L 353.262857 138.780568 
" clip-path="url(#pd133885b48)" style="fill: none; stroke: #bfbfbf; stroke-opacity: 0.22; stroke-width: 0.3; stroke-linecap: square"/>
     </g>
     <g id="line2d_20">
      <g>
       <use xlink:href="#me76de6190f" x="54.491204" y="138.780568" style="stroke: #000000; stroke-width: 0.6"/>
      </g>
     </g>
     <g id="text_11">
      <text style="font-size: 8px; font-family: 'Times New Roman', 'STIXGeneral', 'DejaVu Serif', 'SimSun', 'STSong', 'STZhongsong', 'Microsoft YaHei', 'SimHei'; text-anchor: end" x="48.491204" y="141.558068" transform="rotate(-0 48.491204 141.558068)">6</text>
     </g>
    </g>
    <g id="ytick_3">
     <g id="line2d_21">
      <path d="M 54.491204 106.354865 
L 353.262857 106.354865 
" clip-path="url(#pd133885b48)" style="fill: none; stroke: #bfbfbf; stroke-opacity: 0.22; stroke-width: 0.3; stroke-linecap: square"/>
     </g>
     <g id="line2d_22">
      <g>
       <use xlink:href="#me76de6190f" x="54.491204" y="106.354865" style="stroke: #000000; stroke-width: 0.6"/>
      </g>
     </g>
     <g id="text_12">
      <text style="font-size: 8px; font-family: 'Times New Roman', 'STIXGeneral', 'DejaVu Serif', 'SimSun', 'STSong', 'STZhongsong', 'Microsoft YaHei', 'SimHei'; text-anchor: end" x="48.491204" y="109.132365" transform="rotate(-0 48.491204 109.132365)">8</text>
     </g>
    </g>
    <g id="ytick_4">
     <g id="line2d_23">
      <path d="M 54.491204 73.929163 
L 353.262857 73.929163 
" clip-path="url(#pd133885b48)" style="fill: none; stroke: #bfbfbf; stroke-opacity: 0.22; stroke-width: 0.3; stroke-linecap: square"/>
     </g>
     <g id="line2d_24">
      <g>
       <use xlink:href="#me76de6190f" x="54.491204" y="73.929163" style="stroke: #000000; stroke-width: 0.6"/>
      </g>
     </g>
     <g id="text_13">
      <text style="font-size: 8px; font-family: 'Times New Roman', 'STIXGeneral', 'DejaVu Serif', 'SimSun', 'STSong', 'STZhongsong', 'Microsoft YaHei', 'SimHei'; text-anchor: end" x="48.491204" y="76.706663" transform="rotate(-0 48.491204 76.706663)">10</text>
     </g>
    </g>
    <g id="ytick_5">
     <g id="line2d_25">
      <path d="M 54.491204 41.50346 
L 353.262857 41.50346 
" clip-path="url(#pd133885b48)" style="fill: none; stroke: #bfbfbf; stroke-opacity: 0.22; stroke-width: 0.3; stroke-linecap: square"/>
     </g>
     <g id="line2d_26">
      <g>
       <use xlink:href="#me76de6190f" x="54.491204" y="41.50346" style="stroke: #000000; stroke-width: 0.6"/>
      </g>
     </g>
     <g id="text_14">
      <text style="font-size: 8px; font-family: 'Times New Roman', 'STIXGeneral', 'DejaVu Serif', 'SimSun', 'STSong', 'STZhongsong', 'Microsoft YaHei', 'SimHei'; text-anchor: end" x="48.491204" y="44.28096" transform="rotate(-0 48.491204 44.28096)">12</text>
     </g>
    </g>
    <g id="text_15">
     <text style="font-size: 9px; font-family: 'Times New Roman', 'STIXGeneral', 'DejaVu Serif', 'SimSun', 'STSong', 'STZhongsong', 'Microsoft YaHei', 'SimHei'; text-anchor: middle" x="34.566047" y="96.257126" transform="rotate(-90 34.566047 96.257126)">总成本（万元）</text>
    </g>
   </g>
   <g id="patch_3">
    <path d="M 54.491204 177.889252 
L 54.491204 14.625 
" style="fill: none; stroke: #000000; stroke-width: 0.6; stroke-linejoin: miter; stroke-linecap: square"/>
   </g>
   <g id="patch_4">
    <path d="M 54.491204 177.889252 
L 353.262857 177.889252 
" style="fill: none; stroke: #000000; stroke-width: 0.6; stroke-linejoin: miter; stroke-linecap: square"/>
   </g>
   <g id="line2d_27">
    <path d="M 59.389099 21.371457 
L 61.429889 30.010051 
L 63.470679 37.21832 
L 65.511469 44.805117 
L 67.552259 48.236571 
L 69.593049 52.291857 
L 71.633839 58.782552 
L 73.674629 63.339135 
L 75.715419 67.592574 
L 77.756209 73.940244 
L 79.796999 74.75335 
L 81.837789 82.208006 
L 83.878579 84.795824 
L 85.919369 86.092868 
L 87.960159 92.27317 
L 90.000949 95.271057 
L 92.041739 98.926371 
L 94.082529 100.984584 
L 96.123319 106.104628 
L 98.164109 107.243592 
L 100.204899 107.405628 
L 102.245689 111.155404 
L 104.286479 113.777519 
L 106.327269 115.245628 
L 108.368059 117.158242 
L 110.408849 119.261205 
L 112.449639 120.594095 
L 114.490429 124.424648 
L 116.531219 124.424648 
L 118.572009 126.508842 
L 120.612799 126.508842 
L 122.653589 128.597689 
L 124.694379 130.80035 
L 126.735169 131.084164 
L 128.775959 133.114286 
L 130.816749 133.114286 
L 132.857539 134.225302 
L 134.898329 134.316213 
L 136.939119 137.128101 
L 138.979909 137.128101 
L 141.020699 137.988076 
L 143.061489 137.988076 
L 145.102279 138.342516 
L 147.143069 140.923977 
L 149.183859 140.923977 
L 151.224649 141.631874 
L 153.265439 141.631874 
L 155.306229 141.631874 
L 157.347019 142.068731 
L 159.387809 142.186817 
L 161.428599 144.826048 
L 163.469389 144.826048 
L 165.510179 144.826048 
L 167.550969 144.826048 
L 169.591759 145.895884 
L 171.632549 145.895884 
L 173.673339 145.895884 
L 175.714129 147.767487 
L 177.754919 147.767487 
L 179.795709 147.767487 
L 181.836498 148.268363 
L 183.877288 148.567387 
L 185.918078 148.567387 
L 187.958868 148.567387 
L 189.999658 148.567387 
L 192.040448 148.567387 
L 194.081238 148.828957 
L 196.122028 149.136922 
L 198.162818 149.232144 
L 200.203608 149.232144 
L 202.244398 149.232144 
L 204.285188 149.697486 
L 206.325978 149.697486 
L 208.366768 149.715972 
L 210.407558 150.850797 
L 212.448348 150.850797 
L 214.489138 150.850797 
L 216.529928 150.850797 
L 218.570718 150.850797 
L 220.611508 150.850797 
L 222.652298 150.850797 
L 224.693088 150.850797 
L 226.733878 150.850797 
L 228.774668 152.407961 
L 230.815458 152.407961 
L 232.856248 152.407961 
L 234.897038 152.407961 
L 236.937828 152.407961 
L 238.978618 152.407961 
L 241.019408 152.407961 
L 243.060198 152.407961 
L 245.100988 152.724258 
L 247.141778 152.724258 
L 249.182568 152.724258 
L 251.223358 152.724258 
L 253.264148 152.724258 
L 255.304938 152.724258 
L 257.345728 152.724258 
L 259.386518 152.724258 
L 261.427308 152.724258 
L 263.468098 152.724258 
L 265.508888 152.724258 
L 267.549678 152.724258 
L 269.590468 152.724258 
L 271.631258 152.724258 
L 273.672048 152.724258 
L 275.712838 152.724258 
L 277.753628 152.724258 
L 279.794418 152.724258 
L 281.835208 152.893432 
L 283.875998 152.893432 
L 285.916788 152.893432 
L 287.957578 152.893432 
L 289.998368 152.893432 
L 292.039158 152.893432 
L 294.079948 152.893432 
L 296.120738 152.893432 
L 298.161528 152.893432 
L 300.202318 152.893432 
L 302.243107 152.893432 
" clip-path="url(#pd133885b48)" style="fill: none; stroke: #56b4e9; stroke-width: 1.4; stroke-linecap: square"/>
   </g>
   <g id="text_16">
    <text style="font-size: 6.5px; font-family: 'Times New Roman', 'STIXGeneral', 'DejaVu Serif', 'SimSun', 'STSong', 'STZhongsong', 'Microsoft YaHei', 'SimHei'; text-anchor: end; fill: #438bb4" x="275.835208" y="141.503041" transform="rotate(-0 275.835208 141.503041)">109 代收敛</text>
   </g>
   <g id="line2d_28">
    <path d="M 59.389099 24.819355 
L 61.429889 38.230796 
L 63.470679 51.08216 
L 65.511469 60.890618 
L 67.552259 72.087423 
L 69.593049 80.713298 
L 71.633839 88.350303 
L 73.674629 94.752504 
L 75.715419 101.857508 
L 77.756209 107.561558 
L 79.796999 112.131611 
L 81.837789 115.975693 
L 83.878579 121.074278 
L 85.919369 125.228074 
L 87.960159 127.701635 
L 90.000949 130.091204 
L 92.041739 133.423926 
L 94.082529 135.296621 
L 96.123319 138.652117 
L 98.164109 139.272178 
L 100.204899 140.871155 
L 102.245689 142.012184 
L 104.286479 143.537976 
L 106.327269 144.421607 
L 108.368059 146.626087 
L 110.408849 146.626087 
L 112.449639 148.847878 
L 114.490429 148.922965 
L 116.531219 148.922965 
L 118.572009 149.270635 
L 120.612799 151.568108 
L 122.653589 151.568108 
L 124.694379 151.568108 
L 126.735169 152.18251 
L 128.775959 152.18251 
L 130.816749 152.255054 
L 132.857539 152.255054 
L 134.898329 153.80279 
L 136.939119 153.80279 
L 138.979909 153.80279 
L 141.020699 154.663913 
L 143.061489 154.663913 
L 145.102279 154.663913 
L 147.143069 154.663913 
L 149.183859 154.663913 
L 151.224649 154.663913 
L 153.265439 154.663913 
L 155.306229 154.731718 
L 157.347019 154.731718 
L 159.387809 155.188987 
L 161.428599 155.188987 
L 163.469389 155.188987 
L 165.510179 155.188987 
L 167.550969 155.705034 
L 169.591759 155.705034 
L 171.632549 155.705034 
L 173.673339 155.705034 
L 175.714129 155.705034 
L 177.754919 155.705034 
L 179.795709 155.739625 
L 181.836498 155.952728 
L 183.877288 155.952728 
L 185.918078 155.952728 
L 187.958868 155.952728 
L 189.999658 155.952728 
L 192.040448 155.952728 
L 194.081238 155.952728 
L 196.122028 155.952728 
L 198.162818 155.952728 
L 200.203608 155.952728 
L 202.244398 155.952728 
L 204.285188 155.952728 
L 206.325978 155.952728 
L 208.366768 155.952728 
L 210.407558 155.952728 
L 212.448348 155.952728 
L 214.489138 155.952728 
L 216.529928 155.952728 
L 218.570718 155.952728 
L 220.611508 155.952728 
L 222.652298 155.952728 
L 224.693088 155.952728 
L 226.733878 155.952728 
L 228.774668 155.952728 
L 230.815458 156.300591 
L 232.856248 156.300591 
L 234.897038 156.300591 
L 236.937828 156.300591 
L 238.978618 156.300591 
L 241.019408 156.300591 
L 243.060198 156.300591 
L 245.100988 156.300591 
L 247.141778 156.300591 
L 249.182568 156.300591 
L 251.223358 156.300591 
L 253.264148 156.300591 
L 255.304938 156.300591 
L 257.345728 156.300591 
L 259.386518 156.300591 
L 261.427308 156.300591 
L 263.468098 156.300591 
L 265.508888 156.300591 
L 267.549678 156.300591 
L 269.590468 156.300591 
L 271.631258 156.300591 
L 273.672048 156.300591 
L 275.712838 156.300591 
L 277.753628 156.300591 
L 279.794418 156.300591 
L 281.835208 156.300591 
L 283.875998 156.300591 
L 285.916788 156.300591 
L 287.957578 156.300591 
L 289.998368 156.300591 
L 292.039158 156.300591 
L 294.079948 156.300591 
L 296.120738 156.300591 
L 298.161528 156.300591 
L 300.202318 156.300591 
L 302.243107 156.300591 
" clip-path="url(#pd133885b48)" style="fill: none; stroke: #c97b84; stroke-width: 1.4; stroke-linecap: square"/>
   </g>
   <g id="text_17">
    <text style="font-size: 6.5px; font-family: 'Times New Roman', 'STIXGeneral', 'DejaVu Serif', 'SimSun', 'STSong', 'STZhongsong', 'Microsoft YaHei', 'SimHei'; text-anchor: middle; fill: #b16c74" x="230.815458" y="170.927778" transform="rotate(-0 230.815458 170.927778)">84 代收敛</text>
   </g>
   <g id="text_18">
    <text style="font-size: 9.5px; font-family: 'Times New Roman', 'STIXGeneral', 'DejaVu Serif', 'SimSun', 'STSong', 'STZhongsong', 'Microsoft YaHei', 'SimHei'; text-anchor: middle" x="203.87703" y="8.625" transform="rotate(-0 203.87703 8.625)">改进 GA 提前 25 代收敛，终值优 4.1%</text>
   </g>
   <g id="line2d_29">
    <defs>
     <path id="m1719baa8dc" d="M 0 2.5 
C 0.663008 2.5 1.29895 2.236584 1.767767 1.767767 
C 2.236584 1.29895 2.5 0.663008 2.5 0 
C 2.5 -0.663008 2.236584 -1.29895 1.767767 -1.767767 
C 1.29895 -2.236584 0.663008 -2.5 0 -2.5 
C -0.663008 -2.5 -1.29895 -2.236584 -1.767767 -1.767767 
C -2.236584 -1.29895 -2.5 -0.663008 -2.5 0 
C -2.5 0.663008 -2.236584 1.29895 -1.767767 1.767767 
C -1.29895 2.236584 -0.663008 2.5 0 2.5 
z
" style="stroke: #ffffff; stroke-width: 0.8"/>
    </defs>
    <g clip-path="url(#pd133885b48)">
     <use xlink:href="#m1719baa8dc" x="281.835208" y="152.893432" style="fill: #56b4e9; stroke: #ffffff; stroke-width: 0.8"/>
    </g>
   </g>
   <g id="line2d_30">
    <defs>
     <path id="m788feff8ef" d="M 0 2.5 
C 0.663008 2.5 1.29895 2.236584 1.767767 1.767767 
C 2.236584 1.29895 2.5 0.663008 2.5 0 
C 2.5 -0.663008 2.236584 -1.29895 1.767767 -1.767767 
C 1.29895 -2.236584 0.663008 -2.5 0 -2.5 
C -0.663008 -2.5 -1.29895 -2.236584 -1.767767 -1.767767 
C -2.236584 -1.29895 -2.5 -0.663008 -2.5 0 
C -2.5 0.663008 -2.236584 1.29895 -1.767767 1.767767 
C -1.29895 2.236584 -0.663008 2.5 0 2.5 
z
" style="stroke: #ffffff; stroke-width: 0.8"/>
    </defs>
    <g clip-path="url(#pd133885b48)">
     <use xlink:href="#m788feff8ef" x="230.815458" y="156.300591" style="fill: #c97b84; stroke: #ffffff; stroke-width: 0.8"/>
    </g>
   </g>
   <g id="text_19">
    <path d="M 311.711857 155.901386 
Q 311.711857 157.276386 311.743107 157.807636 
L 311.305607 158.088886 
L 311.305607 157.807636 
L 309.555607 157.807636 
L 309.555607 160.651386 
L 312.118107 159.651386 
L 312.149357 159.776386 
Q 309.743107 160.963886 309.305607 161.401386 
L 308.993107 160.870136 
Q 309.118107 160.713886 309.118107 160.213886 
L 309.118107 158.745136 
Q 309.118107 158.057636 309.086857 157.370136 
L 309.586857 157.620136 
L 311.305607 157.620136 
L 311.305607 155.776386 
L 309.430607 155.776386 
L 309.086857 155.838886 
L 308.836857 155.588886 
L 311.274357 155.588886 
L 311.524357 155.276386 
L 311.961857 155.682636 
L 311.711857 155.901386 
z
M 312.868107 156.651386 
L 312.774357 156.776386 
Q 313.149357 158.745136 313.743107 159.620136 
Q 314.336857 158.495136 314.461857 156.651386 
L 312.868107 156.651386 
z
M 312.649357 156.995136 
Q 312.368107 157.557636 311.743107 158.307636 
L 311.649357 158.245136 
Q 312.524357 156.901386 313.086857 154.557636 
L 313.743107 154.901386 
L 313.493107 155.088886 
Q 313.336857 155.495136 312.930607 156.463886 
L 314.899357 156.463886 
L 315.243107 156.120136 
L 315.774357 156.651386 
L 314.868107 156.651386 
Q 314.774357 158.713886 313.993107 159.963886 
Q 315.024357 161.120136 315.899357 161.213886 
L 315.899357 161.338886 
Q 315.430607 161.401386 315.305607 161.713886 
Q 314.524357 161.245136 313.743107 160.276386 
Q 312.649357 161.338886 310.961857 161.838886 
L 310.930607 161.745136 
Q 312.524357 161.088886 313.524357 159.963886 
Q 312.836857 158.838886 312.649357 156.995136 
z
M 320.524357 156.463886 
L 320.524357 158.213886 
L 321.774357 158.213886 
L 321.774357 156.463886 
L 320.524357 156.463886 
z
M 320.118107 158.213886 
L 320.118107 156.463886 
L 319.805607 156.463886 
Q 319.399357 156.463886 319.055607 156.557636 
L 318.774357 156.276386 
L 320.118107 156.276386 
Q 320.118107 155.432636 320.086857 154.588886 
L 320.805607 154.963886 
L 320.524357 155.182636 
L 320.524357 156.276386 
L 321.774357 156.276386 
Q 321.774357 155.401386 321.743107 154.588886 
L 322.461857 154.932636 
L 322.180607 155.182636 
L 322.180607 156.276386 
L 322.680607 156.276386 
L 323.055607 155.901386 
L 323.586857 156.463886 
L 322.180607 156.463886 
L 322.180607 158.213886 
L 322.899357 158.213886 
L 323.274357 157.838886 
L 323.805607 158.401386 
L 322.180607 158.401386 
Q 322.180607 160.213886 322.211857 160.651386 
L 321.743107 160.870136 
Q 321.774357 160.245136 321.774357 158.401386 
L 320.524357 158.401386 
Q 320.430607 159.870136 318.930607 160.651386 
L 318.868107 160.557636 
Q 320.055607 159.682636 320.118107 158.401386 
L 319.618107 158.401386 
Q 319.211857 158.401386 318.868107 158.495136 
L 318.586857 158.213886 
L 320.118107 158.213886 
z
M 317.336857 154.901386 
L 317.399357 154.838886 
Q 317.993107 155.151386 318.226857 155.386386 
Q 318.461857 155.620136 318.430607 155.838886 
Q 318.399357 156.057636 318.274357 156.151386 
Q 318.149357 156.245136 318.118107 156.245136 
Q 317.993107 156.245136 317.899357 155.870136 
Q 317.774357 155.401386 317.336857 154.901386 
z
M 318.211857 160.213886 
Q 318.555607 160.495136 319.039357 160.761386 
Q 319.524357 161.026386 320.476857 161.072636 
Q 321.430607 161.120136 322.289357 161.088886 
Q 323.149357 161.057636 323.930607 160.963886 
L 323.930607 161.088886 
Q 323.211857 161.276386 323.274357 161.588886 
Q 321.836857 161.588886 320.945607 161.557636 
Q 320.055607 161.526386 319.555607 161.370136 
Q 319.055607 161.213886 318.586857 160.776386 
Q 318.118107 160.370136 318.024357 160.355136 
Q 317.930607 160.338886 317.680607 160.588886 
Q 317.430607 160.838886 316.993107 161.495136 
L 316.586857 161.120136 
Q 317.118107 160.682636 317.805607 160.182636 
L 317.805607 157.557636 
L 317.524357 157.557636 
Q 317.118107 157.557636 316.774357 157.651386 
L 316.493107 157.370136 
L 317.711857 157.370136 
L 318.055607 157.026386 
L 318.493107 157.463886 
L 318.211857 157.682636 
L 318.211857 160.213886 
z
M 331.763107 155.608886 
L 331.763107 157.475136 
L 331.618107 157.475136 
Q 331.356857 156.710136 330.833107 156.311386 
Q 330.309357 155.912636 329.688107 155.912636 
Q 329.094357 155.912636 328.699357 156.247636 
Q 328.305607 156.581386 328.141857 157.178886 
Q 327.978107 157.776386 327.978107 158.405136 
Q 327.978107 159.166386 328.156857 159.741386 
Q 328.336857 160.315136 328.736857 160.585136 
Q 329.138107 160.853886 329.688107 160.853886 
Q 329.879357 160.853886 330.080607 160.813886 
Q 330.281857 160.772636 330.493107 160.693886 
L 330.493107 159.592636 
Q 330.493107 159.280136 330.449357 159.188886 
Q 330.406857 159.096386 330.271857 159.022636 
Q 330.138107 158.947636 329.946857 158.947636 
L 329.809357 158.947636 
L 329.809357 158.803886 
L 332.384357 158.803886 
L 332.384357 158.947636 
Q 332.090607 158.967636 331.975607 159.028886 
Q 331.860607 159.088886 331.798107 159.228886 
Q 331.763107 159.303886 331.763107 159.592636 
L 331.763107 160.693886 
Q 331.254357 160.921386 330.705607 161.036386 
Q 330.156857 161.151386 329.566857 161.151386 
Q 328.813107 161.151386 328.314357 160.946386 
Q 327.816857 160.741386 327.435607 160.407636 
Q 327.055607 160.072636 326.840607 159.655136 
Q 326.566857 159.116386 326.566857 158.447636 
Q 326.566857 157.252636 327.406857 156.428886 
Q 328.246857 155.603886 329.520607 155.603886 
Q 329.915607 155.603886 330.231857 155.666386 
Q 330.403107 155.697636 330.788107 155.845136 
Q 331.173107 155.991386 331.243107 155.991386 
Q 331.353107 155.991386 331.446857 155.911386 
Q 331.540607 155.831386 331.618107 155.608886 
L 331.763107 155.608886 
z
M 335.794514 159.518886 
L 333.923264 159.518886 
L 333.700764 160.033886 
Q 333.590764 160.291386 333.590764 160.460136 
Q 333.590764 160.682636 333.770764 160.787636 
Q 333.875764 160.850136 334.289514 160.881386 
L 334.289514 161.026386 
L 332.528264 161.026386 
L 332.528264 160.881386 
Q 332.813264 160.838886 332.997014 160.646386 
Q 333.180764 160.452636 333.450764 159.846386 
L 335.344514 155.620136 
L 335.419514 155.620136 
L 337.329514 159.963886 
Q 337.602014 160.581386 337.778264 160.741386 
Q 337.910764 160.862636 338.153264 160.881386 
L 338.153264 161.026386 
L 335.590764 161.026386 
L 335.590764 160.881386 
L 335.695764 160.881386 
Q 336.004514 160.881386 336.129514 160.796386 
Q 336.215764 160.733886 336.215764 160.616386 
Q 336.215764 160.546386 336.192014 160.471386 
Q 336.184514 160.436386 336.075764 160.178886 
L 335.794514 159.518886 
z
M 335.660764 159.228886 
L 334.872014 157.405136 
L 334.059514 159.228886 
L 335.660764 159.228886 
z
M 340.001857 159.030136 
L 342.518107 155.620136 
L 342.994357 155.620136 
L 342.994357 159.030136 
L 343.479357 159.030136 
L 343.479357 159.838886 
L 342.994357 159.838886 
L 342.994357 161.026386 
L 341.920607 161.026386 
L 341.920607 159.838886 
L 340.001857 159.838886 
L 340.001857 159.030136 
z
M 340.381857 159.030136 
L 341.920607 159.030136 
L 341.920607 156.940136 
L 340.381857 159.030136 
z
M 344.803107 159.822636 
Q 345.076857 159.822636 345.265607 160.015136 
Q 345.455607 160.206386 345.455607 160.475136 
Q 345.455607 160.745136 345.264357 160.935136 
Q 345.073107 161.123886 344.803107 161.123886 
Q 344.533107 161.123886 344.343107 160.935136 
Q 344.154357 160.745136 344.154357 160.475136 
Q 344.154357 160.206386 344.343107 160.015136 
Q 344.533107 159.822636 344.803107 159.822636 
z
M 346.049357 161.136386 
L 346.049357 161.026386 
Q 346.698107 160.877636 347.149357 160.588886 
Q 347.600607 160.300136 347.863107 159.873886 
Q 348.126857 159.447636 348.233107 158.893886 
Q 347.990607 159.018886 347.820607 159.067636 
Q 347.650607 159.116386 347.463107 159.116386 
Q 346.861857 159.116386 346.460607 158.682636 
Q 346.060607 158.248886 346.060607 157.495136 
Q 346.060607 156.971386 346.276857 156.536386 
Q 346.494357 156.100136 346.896857 155.860136 
Q 347.299357 155.620136 347.733107 155.620136 
Q 348.198107 155.620136 348.611857 155.886386 
Q 349.025607 156.151386 349.271857 156.655136 
Q 349.518107 157.158886 349.518107 157.803886 
Q 349.518107 158.640136 349.116857 159.406386 
Q 348.716857 160.171386 347.924357 160.633886 
Q 347.131857 161.096386 346.049357 161.136386 
z
M 348.291857 158.565136 
Q 348.330607 158.127636 348.330607 157.796386 
Q 348.330607 157.085136 348.166857 156.471386 
Q 348.073107 156.131386 347.889357 155.971386 
Q 347.791857 155.885136 347.635607 155.885136 
Q 347.439357 155.885136 347.330607 156.053886 
Q 347.178107 156.283886 347.178107 156.932636 
Q 347.178107 158.015136 347.435607 158.425136 
Q 347.604357 158.690136 347.889357 158.690136 
Q 348.041857 158.690136 348.291857 158.565136 
z
M 352.408107 155.620136 
L 352.408107 159.952636 
Q 352.408107 160.440136 352.450607 160.575136 
Q 352.494357 160.710136 352.630607 160.796386 
Q 352.768107 160.881386 353.069357 160.881386 
L 353.189357 160.881386 
L 353.189357 161.026386 
L 350.400607 161.026386 
L 350.400607 160.881386 
L 350.541857 160.881386 
Q 350.881857 160.881386 351.025607 160.803886 
Q 351.170607 160.725136 351.220607 160.588886 
Q 351.271857 160.452636 351.271857 159.952636 
L 351.271857 157.206386 
Q 351.271857 156.838886 351.236857 156.747636 
Q 351.201857 156.655136 351.105607 156.591386 
Q 351.010607 156.526386 350.885607 156.526386 
Q 350.685607 156.526386 350.400607 156.651386 
L 350.330607 156.510136 
L 352.279357 155.620136 
L 352.408107 155.620136 
z
M 354.049357 161.136386 
L 354.049357 161.026386 
Q 354.698107 160.877636 355.149357 160.588886 
Q 355.600607 160.300136 355.863107 159.873886 
Q 356.126857 159.447636 356.233107 158.893886 
Q 355.990607 159.018886 355.820607 159.067636 
Q 355.650607 159.116386 355.463107 159.116386 
Q 354.861857 159.116386 354.460607 158.682636 
Q 354.060607 158.248886 354.060607 157.495136 
Q 354.060607 156.971386 354.276857 156.536386 
Q 354.494357 156.100136 354.896857 155.860136 
Q 355.299357 155.620136 355.733107 155.620136 
Q 356.198107 155.620136 356.611857 155.886386 
Q 357.025607 156.151386 357.271857 156.655136 
Q 357.518107 157.158886 357.518107 157.803886 
Q 357.518107 158.640136 357.116857 159.406386 
Q 356.716857 160.171386 355.924357 160.633886 
Q 355.131857 161.096386 354.049357 161.136386 
z
M 356.291857 158.565136 
Q 356.330607 158.127636 356.330607 157.796386 
Q 356.330607 157.085136 356.166857 156.471386 
Q 356.073107 156.131386 355.889357 155.971386 
Q 355.791857 155.885136 355.635607 155.885136 
Q 355.439357 155.885136 355.330607 156.053886 
Q 355.178107 156.283886 355.178107 156.932636 
Q 355.178107 158.015136 355.435607 158.425136 
Q 355.604357 158.690136 355.889357 158.690136 
Q 356.041857 158.690136 356.291857 158.565136 
z
" style="fill: #b16c74; stroke: #ffffff; stroke-width: 2"/>
    <path d="M 311.711857 155.901386 
Q 311.711857 157.276386 311.743107 157.807636 
L 311.305607 158.088886 
L 311.305607 157.807636 
L 309.555607 157.807636 
L 309.555607 160.651386 
L 312.118107 159.651386 
L 312.149357 159.776386 
Q 309.743107 160.963886 309.305607 161.401386 
L 308.993107 160.870136 
Q 309.118107 160.713886 309.118107 160.213886 
L 309.118107 158.745136 
Q 309.118107 158.057636 309.086857 157.370136 
L 309.586857 157.620136 
L 311.305607 157.620136 
L 311.305607 155.776386 
L 309.430607 155.776386 
L 309.086857 155.838886 
L 308.836857 155.588886 
L 311.274357 155.588886 
L 311.524357 155.276386 
L 311.961857 155.682636 
L 311.711857 155.901386 
z
M 312.868107 156.651386 
L 312.774357 156.776386 
Q 313.149357 158.745136 313.743107 159.620136 
Q 314.336857 158.495136 314.461857 156.651386 
L 312.868107 156.651386 
z
M 312.649357 156.995136 
Q 312.368107 157.557636 311.743107 158.307636 
L 311.649357 158.245136 
Q 312.524357 156.901386 313.086857 154.557636 
L 313.743107 154.901386 
L 313.493107 155.088886 
Q 313.336857 155.495136 312.930607 156.463886 
L 314.899357 156.463886 
L 315.243107 156.120136 
L 315.774357 156.651386 
L 314.868107 156.651386 
Q 314.774357 158.713886 313.993107 159.963886 
Q 315.024357 161.120136 315.899357 161.213886 
L 315.899357 161.338886 
Q 315.430607 161.401386 315.305607 161.713886 
Q 314.524357 161.245136 313.743107 160.276386 
Q 312.649357 161.338886 310.961857 161.838886 
L 310.930607 161.745136 
Q 312.524357 161.088886 313.524357 159.963886 
Q 312.836857 158.838886 312.649357 156.995136 
z
M 320.524357 156.463886 
L 320.524357 158.213886 
L 321.774357 158.213886 
L 321.774357 156.463886 
L 320.524357 156.463886 
z
M 320.118107 158.213886 
L 320.118107 156.463886 
L 319.805607 156.463886 
Q 319.399357 156.463886 319.055607 156.557636 
L 318.774357 156.276386 
L 320.118107 156.276386 
Q 320.118107 155.432636 320.086857 154.588886 
L 320.805607 154.963886 
L 320.524357 155.182636 
L 320.524357 156.276386 
L 321.774357 156.276386 
Q 321.774357 155.401386 321.743107 154.588886 
L 322.461857 154.932636 
L 322.180607 155.182636 
L 322.180607 156.276386 
L 322.680607 156.276386 
L 323.055607 155.901386 
L 323.586857 156.463886 
L 322.180607 156.463886 
L 322.180607 158.213886 
L 322.899357 158.213886 
L 323.274357 157.838886 
L 323.805607 158.401386 
L 322.180607 158.401386 
Q 322.180607 160.213886 322.211857 160.651386 
L 321.743107 160.870136 
Q 321.774357 160.245136 321.774357 158.401386 
L 320.524357 158.401386 
Q 320.430607 159.870136 318.930607 160.651386 
L 318.868107 160.557636 
Q 320.055607 159.682636 320.118107 158.401386 
L 319.618107 158.401386 
Q 319.211857 158.401386 318.868107 158.495136 
L 318.586857 158.213886 
L 320.118107 158.213886 
z
M 317.336857 154.901386 
L 317.399357 154.838886 
Q 317.993107 155.151386 318.226857 155.386386 
Q 318.461857 155.620136 318.430607 155.838886 
Q 318.399357 156.057636 318.274357 156.151386 
Q 318.149357 156.245136 318.118107 156.245136 
Q 317.993107 156.245136 317.899357 155.870136 
Q 317.774357 155.401386 317.336857 154.901386 
z
M 318.211857 160.213886 
Q 318.555607 160.495136 319.039357 160.761386 
Q 319.524357 161.026386 320.476857 161.072636 
Q 321.430607 161.120136 322.289357 161.088886 
Q 323.149357 161.057636 323.930607 160.963886 
L 323.930607 161.088886 
Q 323.211857 161.276386 323.274357 161.588886 
Q 321.836857 161.588886 320.945607 161.557636 
Q 320.055607 161.526386 319.555607 161.370136 
Q 319.055607 161.213886 318.586857 160.776386 
Q 318.118107 160.370136 318.024357 160.355136 
Q 317.930607 160.338886 317.680607 160.588886 
Q 317.430607 160.838886 316.993107 161.495136 
L 316.586857 161.120136 
Q 317.118107 160.682636 317.805607 160.182636 
L 317.805607 157.557636 
L 317.524357 157.557636 
Q 317.118107 157.557636 316.774357 157.651386 
L 316.493107 157.370136 
L 317.711857 157.370136 
L 318.055607 157.026386 
L 318.493107 157.463886 
L 318.211857 157.682636 
L 318.211857 160.213886 
z
M 331.763107 155.608886 
L 331.763107 157.475136 
L 331.618107 157.475136 
Q 331.356857 156.710136 330.833107 156.311386 
Q 330.309357 155.912636 329.688107 155.912636 
Q 329.094357 155.912636 328.699357 156.247636 
Q 328.305607 156.581386 328.141857 157.178886 
Q 327.978107 157.776386 327.978107 158.405136 
Q 327.978107 159.166386 328.156857 159.741386 
Q 328.336857 160.315136 328.736857 160.585136 
Q 329.138107 160.853886 329.688107 160.853886 
Q 329.879357 160.853886 330.080607 160.813886 
Q 330.281857 160.772636 330.493107 160.693886 
L 330.493107 159.592636 
Q 330.493107 159.280136 330.449357 159.188886 
Q 330.406857 159.096386 330.271857 159.022636 
Q 330.138107 158.947636 329.946857 158.947636 
L 329.809357 158.947636 
L 329.809357 158.803886 
L 332.384357 158.803886 
L 332.384357 158.947636 
Q 332.090607 158.967636 331.975607 159.028886 
Q 331.860607 159.088886 331.798107 159.228886 
Q 331.763107 159.303886 331.763107 159.592636 
L 331.763107 160.693886 
Q 331.254357 160.921386 330.705607 161.036386 
Q 330.156857 161.151386 329.566857 161.151386 
Q 328.813107 161.151386 328.314357 160.946386 
Q 327.816857 160.741386 327.435607 160.407636 
Q 327.055607 160.072636 326.840607 159.655136 
Q 326.566857 159.116386 326.566857 158.447636 
Q 326.566857 157.252636 327.406857 156.428886 
Q 328.246857 155.603886 329.520607 155.603886 
Q 329.915607 155.603886 330.231857 155.666386 
Q 330.403107 155.697636 330.788107 155.845136 
Q 331.173107 155.991386 331.243107 155.991386 
Q 331.353107 155.991386 331.446857 155.911386 
Q 331.540607 155.831386 331.618107 155.608886 
L 331.763107 155.608886 
z
M 335.794514 159.518886 
L 333.923264 159.518886 
L 333.700764 160.033886 
Q 333.590764 160.291386 333.590764 160.460136 
Q 333.590764 160.682636 333.770764 160.787636 
Q 333.875764 160.850136 334.289514 160.881386 
L 334.289514 161.026386 
L 332.528264 161.026386 
L 332.528264 160.881386 
Q 332.813264 160.838886 332.997014 160.646386 
Q 333.180764 160.452636 333.450764 159.846386 
L 335.344514 155.620136 
L 335.419514 155.620136 
L 337.329514 159.963886 
Q 337.602014 160.581386 337.778264 160.741386 
Q 337.910764 160.862636 338.153264 160.881386 
L 338.153264 161.026386 
L 335.590764 161.026386 
L 335.590764 160.881386 
L 335.695764 160.881386 
Q 336.004514 160.881386 336.129514 160.796386 
Q 336.215764 160.733886 336.215764 160.616386 
Q 336.215764 160.546386 336.192014 160.471386 
Q 336.184514 160.436386 336.075764 160.178886 
L 335.794514 159.518886 
z
M 335.660764 159.228886 
L 334.872014 157.405136 
L 334.059514 159.228886 
L 335.660764 159.228886 
z
M 340.001857 159.030136 
L 342.518107 155.620136 
L 342.994357 155.620136 
L 342.994357 159.030136 
L 343.479357 159.030136 
L 343.479357 159.838886 
L 342.994357 159.838886 
L 342.994357 161.026386 
L 341.920607 161.026386 
L 341.920607 159.838886 
L 340.001857 159.838886 
L 340.001857 159.030136 
z
M 340.381857 159.030136 
L 341.920607 159.030136 
L 341.920607 156.940136 
L 340.381857 159.030136 
z
M 344.803107 159.822636 
Q 345.076857 159.822636 345.265607 160.015136 
Q 345.455607 160.206386 345.455607 160.475136 
Q 345.455607 160.745136 345.264357 160.935136 
Q 345.073107 161.123886 344.803107 161.123886 
Q 344.533107 161.123886 344.343107 160.935136 
Q 344.154357 160.745136 344.154357 160.475136 
Q 344.154357 160.206386 344.343107 160.015136 
Q 344.533107 159.822636 344.803107 159.822636 
z
M 346.049357 161.136386 
L 346.049357 161.026386 
Q 346.698107 160.877636 347.149357 160.588886 
Q 347.600607 160.300136 347.863107 159.873886 
Q 348.126857 159.447636 348.233107 158.893886 
Q 347.990607 159.018886 347.820607 159.067636 
Q 347.650607 159.116386 347.463107 159.116386 
Q 346.861857 159.116386 346.460607 158.682636 
Q 346.060607 158.248886 346.060607 157.495136 
Q 346.060607 156.971386 346.276857 156.536386 
Q 346.494357 156.100136 346.896857 155.860136 
Q 347.299357 155.620136 347.733107 155.620136 
Q 348.198107 155.620136 348.611857 155.886386 
Q 349.025607 156.151386 349.271857 156.655136 
Q 349.518107 157.158886 349.518107 157.803886 
Q 349.518107 158.640136 349.116857 159.406386 
Q 348.716857 160.171386 347.924357 160.633886 
Q 347.131857 161.096386 346.049357 161.136386 
z
M 348.291857 158.565136 
Q 348.330607 158.127636 348.330607 157.796386 
Q 348.330607 157.085136 348.166857 156.471386 
Q 348.073107 156.131386 347.889357 155.971386 
Q 347.791857 155.885136 347.635607 155.885136 
Q 347.439357 155.885136 347.330607 156.053886 
Q 347.178107 156.283886 347.178107 156.932636 
Q 347.178107 158.015136 347.435607 158.425136 
Q 347.604357 158.690136 347.889357 158.690136 
Q 348.041857 158.690136 348.291857 158.565136 
z
M 352.408107 155.620136 
L 352.408107 159.952636 
Q 352.408107 160.440136 352.450607 160.575136 
Q 352.494357 160.710136 352.630607 160.796386 
Q 352.768107 160.881386 353.069357 160.881386 
L 353.189357 160.881386 
L 353.189357 161.026386 
L 350.400607 161.026386 
L 350.400607 160.881386 
L 350.541857 160.881386 
Q 350.881857 160.881386 351.025607 160.803886 
Q 351.170607 160.725136 351.220607 160.588886 
Q 351.271857 160.452636 351.271857 159.952636 
L 351.271857 157.206386 
Q 351.271857 156.838886 351.236857 156.747636 
Q 351.201857 156.655136 351.105607 156.591386 
Q 351.010607 156.526386 350.885607 156.526386 
Q 350.685607 156.526386 350.400607 156.651386 
L 350.330607 156.510136 
L 352.279357 155.620136 
L 352.408107 155.620136 
z
M 354.049357 161.136386 
L 354.049357 161.026386 
Q 354.698107 160.877636 355.149357 160.588886 
Q 355.600607 160.300136 355.863107 159.873886 
Q 356.126857 159.447636 356.233107 158.893886 
Q 355.990607 159.018886 355.820607 159.067636 
Q 355.650607 159.116386 355.463107 159.116386 
Q 354.861857 159.116386 354.460607 158.682636 
Q 354.060607 158.248886 354.060607 157.495136 
Q 354.060607 156.971386 354.276857 156.536386 
Q 354.494357 156.100136 354.896857 155.860136 
Q 355.299357 155.620136 355.733107 155.620136 
Q 356.198107 155.620136 356.611857 155.886386 
Q 357.025607 156.151386 357.271857 156.655136 
Q 357.518107 157.158886 357.518107 157.803886 
Q 357.518107 158.640136 357.116857 159.406386 
Q 356.716857 160.171386 355.924357 160.633886 
Q 355.131857 161.096386 354.049357 161.136386 
z
M 356.291857 158.565136 
Q 356.330607 158.127636 356.330607 157.796386 
Q 356.330607 157.085136 356.166857 156.471386 
Q 356.073107 156.131386 355.889357 155.971386 
Q 355.791857 155.885136 355.635607 155.885136 
Q 355.439357 155.885136 355.330607 156.053886 
Q 355.178107 156.283886 355.178107 156.932636 
Q 355.178107 158.015136 355.435607 158.425136 
Q 355.604357 158.690136 355.889357 158.690136 
Q 356.041857 158.690136 356.291857 158.565136 
z
" style="fill: #b16c74"/>
   </g>
   <g id="text_20">
    <path d="M 314.211857 149.292011 
Q 315.399357 150.479511 315.524357 150.760761 
Q 315.649357 151.042011 315.649357 151.198261 
Q 315.649357 151.417011 315.524357 151.604511 
Q 315.399357 151.792011 315.368107 151.792011 
Q 315.211857 151.792011 315.086857 151.260761 
Q 314.868107 150.542011 314.118107 149.354511 
L 314.211857 149.292011 
z
M 311.680607 146.323261 
L 314.461857 146.323261 
L 314.836857 145.948261 
L 315.399357 146.510761 
L 312.211857 146.510761 
L 311.930607 146.573261 
L 311.680607 146.323261 
z
M 312.118107 151.979511 
Q 312.961857 152.135761 313.118107 152.104511 
Q 313.274357 152.073261 313.274357 151.854511 
L 313.274357 148.385761 
L 311.743107 148.385761 
L 311.461857 148.448261 
L 311.211857 148.198261 
L 314.930607 148.198261 
L 315.336857 147.792011 
L 315.930607 148.385761 
L 313.743107 148.385761 
L 313.743107 152.104511 
Q 313.711857 152.604511 313.055607 152.823261 
Q 313.055607 152.448261 312.118107 152.135761 
L 312.118107 151.979511 
z
M 312.149357 149.229511 
L 312.836857 149.635761 
L 312.524357 149.792011 
Q 311.743107 151.198261 310.868107 152.042011 
L 310.774357 151.948261 
Q 311.649357 150.792011 312.149357 149.229511 
z
M 310.336857 148.667011 
Q 310.336857 152.042011 310.368107 152.667011 
L 309.868107 152.854511 
Q 309.899357 151.510761 309.899357 149.167011 
Q 309.430607 150.260761 308.680607 151.198261 
L 308.586857 151.073261 
Q 309.461857 149.667011 309.899357 147.729511 
L 309.118107 147.729511 
L 308.836857 147.792011 
L 308.586857 147.542011 
L 309.899357 147.542011 
Q 309.899357 146.354511 309.868107 145.479511 
L 310.618107 145.854511 
L 310.336857 146.073261 
L 310.336857 147.542011 
L 310.743107 147.542011 
L 311.086857 147.198261 
L 311.618107 147.729511 
L 310.336857 147.729511 
L 310.336857 148.510761 
Q 310.930607 148.823261 311.133107 149.042011 
Q 311.336857 149.260761 311.336857 149.417011 
Q 311.336857 149.510761 311.243107 149.683261 
Q 311.149357 149.854511 311.086857 149.854511 
Q 310.993107 149.854511 310.868107 149.479511 
Q 310.649357 148.979511 310.336857 148.667011 
z
M 319.461857 152.823261 
Q 319.493107 151.698261 319.493107 151.385761 
L 319.493107 147.854511 
Q 318.993107 148.667011 318.336857 149.323261 
L 318.243107 149.260761 
Q 318.868107 148.385761 319.320607 147.308261 
Q 319.774357 146.229511 319.899357 145.604511 
L 320.555607 146.010761 
L 320.305607 146.167011 
Q 320.024357 146.729511 319.836857 147.135761 
L 322.711857 147.135761 
L 323.149357 146.698261 
L 323.774357 147.323261 
L 321.805607 147.323261 
L 321.805607 148.604511 
L 322.493107 148.604511 
L 322.899357 148.198261 
L 323.493107 148.792011 
L 321.805607 148.792011 
L 321.805607 150.260761 
L 322.618107 150.260761 
L 323.024357 149.854511 
L 323.618107 150.448261 
L 321.805607 150.448261 
L 321.805607 151.948261 
L 322.805607 151.948261 
L 323.243107 151.510761 
L 323.868107 152.135761 
L 319.930607 152.135761 
L 319.930607 152.604511 
L 319.461857 152.823261 
z
M 321.368107 147.323261 
L 319.930607 147.323261 
L 319.930607 148.604511 
L 321.368107 148.604511 
L 321.368107 147.323261 
z
M 319.930607 148.792011 
L 319.930607 150.260761 
L 321.368107 150.260761 
L 321.368107 148.792011 
L 319.930607 148.792011 
z
M 319.930607 150.448261 
L 319.930607 151.948261 
L 321.368107 151.948261 
L 321.368107 150.448261 
L 319.930607 150.448261 
z
M 321.086857 145.635761 
L 321.180607 145.573261 
Q 322.086857 146.167011 322.055607 146.448261 
Q 322.024357 146.729511 321.899357 146.839511 
Q 321.774357 146.948261 321.711857 146.948261 
Q 321.586857 146.948261 321.555607 146.635761 
Q 321.461857 146.229511 321.086857 145.635761 
z
M 316.868107 145.979511 
Q 317.930607 146.604511 317.914357 146.902011 
Q 317.899357 147.198261 317.774357 147.339511 
Q 317.649357 147.479511 317.586857 147.479511 
Q 317.493107 147.479511 317.399357 147.167011 
Q 317.274357 146.729511 316.805607 146.042011 
L 316.868107 145.979511 
z
M 316.618107 149.792011 
Q 317.024357 149.792011 317.320607 149.714511 
Q 317.618107 149.635761 318.868107 146.448261 
L 318.993107 146.479511 
Q 318.430607 148.135761 318.118107 149.010761 
Q 317.774357 149.885761 317.743107 150.652011 
Q 317.711857 151.417011 317.743107 151.854511 
Q 317.743107 152.323261 317.508107 152.244511 
Q 317.274357 152.167011 317.180607 152.027011 
Q 317.086857 151.885761 317.086857 151.698261 
Q 317.086857 151.510761 317.118107 151.385761 
Q 317.211857 151.010761 317.274357 150.698261 
Q 317.336857 150.385761 317.226857 150.198261 
Q 317.118107 150.010761 316.618107 149.917011 
L 316.618107 149.792011 
z
M 331.763107 146.655761 
L 331.763107 148.522011 
L 331.618107 148.522011 
Q 331.356857 147.757011 330.833107 147.358261 
Q 330.309357 146.959511 329.688107 146.959511 
Q 329.094357 146.959511 328.699357 147.294511 
Q 328.305607 147.628261 328.141857 148.225761 
Q 327.978107 148.823261 327.978107 149.452011 
Q 327.978107 150.213261 328.156857 150.788261 
Q 328.336857 151.362011 328.736857 151.632011 
Q 329.138107 151.900761 329.688107 151.900761 
Q 329.879357 151.900761 330.080607 151.860761 
Q 330.281857 151.819511 330.493107 151.740761 
L 330.493107 150.639511 
Q 330.493107 150.327011 330.449357 150.235761 
Q 330.406857 150.143261 330.271857 150.069511 
Q 330.138107 149.994511 329.946857 149.994511 
L 329.809357 149.994511 
L 329.809357 149.850761 
L 332.384357 149.850761 
L 332.384357 149.994511 
Q 332.090607 150.014511 331.975607 150.075761 
Q 331.860607 150.135761 331.798107 150.275761 
Q 331.763107 150.350761 331.763107 150.639511 
L 331.763107 151.740761 
Q 331.254357 151.968261 330.705607 152.083261 
Q 330.156857 152.198261 329.566857 152.198261 
Q 328.813107 152.198261 328.314357 151.993261 
Q 327.816857 151.788261 327.435607 151.454511 
Q 327.055607 151.119511 326.840607 150.702011 
Q 326.566857 150.163261 326.566857 149.494511 
Q 326.566857 148.299511 327.406857 147.475761 
Q 328.246857 146.650761 329.520607 146.650761 
Q 329.915607 146.650761 330.231857 146.713261 
Q 330.403107 146.744511 330.788107 146.892011 
Q 331.173107 147.038261 331.243107 147.038261 
Q 331.353107 147.038261 331.446857 146.958261 
Q 331.540607 146.878261 331.618107 146.655761 
L 331.763107 146.655761 
z
M 335.794514 150.565761 
L 333.923264 150.565761 
L 333.700764 151.080761 
Q 333.590764 151.338261 333.590764 151.507011 
Q 333.590764 151.729511 333.770764 151.834511 
Q 333.875764 151.897011 334.289514 151.928261 
L 334.289514 152.073261 
L 332.528264 152.073261 
L 332.528264 151.928261 
Q 332.813264 151.885761 332.997014 151.693261 
Q 333.180764 151.499511 333.450764 150.893261 
L 335.344514 146.667011 
L 335.419514 146.667011 
L 337.329514 151.010761 
Q 337.602014 151.628261 337.778264 151.788261 
Q 337.910764 151.909511 338.153264 151.928261 
L 338.153264 152.073261 
L 335.590764 152.073261 
L 335.590764 151.928261 
L 335.695764 151.928261 
Q 336.004514 151.928261 336.129514 151.843261 
Q 336.215764 151.780761 336.215764 151.663261 
Q 336.215764 151.593261 336.192014 151.518261 
Q 336.184514 151.483261 336.075764 151.225761 
L 335.794514 150.565761 
z
M 335.660764 150.275761 
L 334.872014 148.452011 
L 334.059514 150.275761 
L 335.660764 150.275761 
z
M 341.021857 146.775761 
L 343.501857 146.775761 
L 343.108107 147.784511 
L 341.021857 147.784511 
L 340.823107 148.312011 
Q 342.170607 148.362011 342.896857 148.983261 
Q 343.494357 149.494511 343.494357 150.257011 
Q 343.494357 150.744511 343.216857 151.212011 
Q 342.939357 151.678261 342.435607 151.930761 
Q 341.931857 152.183261 341.330607 152.183261 
Q 340.681857 152.183261 340.334357 151.940761 
Q 340.091857 151.768261 340.091857 151.549511 
Q 340.091857 151.382011 340.218107 151.253261 
Q 340.345607 151.124511 340.514357 151.124511 
Q 340.666857 151.124511 340.823107 151.187011 
Q 340.979357 151.249511 341.358107 151.514511 
Q 341.595607 151.678261 341.768107 151.740761 
Q 341.889357 151.788261 342.041857 151.788261 
Q 342.361857 151.788261 342.585607 151.554511 
Q 342.810607 151.319511 342.810607 150.990761 
Q 342.810607 150.303261 342.123107 149.874511 
Q 341.435607 149.444511 340.389357 149.444511 
Q 340.283107 149.444511 340.073107 149.448261 
L 341.021857 146.775761 
z
M 344.803107 150.869511 
Q 345.076857 150.869511 345.265607 151.062011 
Q 345.455607 151.253261 345.455607 151.522011 
Q 345.455607 151.792011 345.264357 151.982011 
Q 345.073107 152.170761 344.803107 152.170761 
Q 344.533107 152.170761 344.343107 151.982011 
Q 344.154357 151.792011 344.154357 151.522011 
Q 344.154357 151.253261 344.343107 151.062011 
Q 344.533107 150.869511 344.803107 150.869511 
z
M 348.408107 146.667011 
L 348.408107 150.999511 
Q 348.408107 151.487011 348.450607 151.622011 
Q 348.494357 151.757011 348.630607 151.843261 
Q 348.768107 151.928261 349.069357 151.928261 
L 349.189357 151.928261 
L 349.189357 152.073261 
L 346.400607 152.073261 
L 346.400607 151.928261 
L 346.541857 151.928261 
Q 346.881857 151.928261 347.025607 151.850761 
Q 347.170607 151.772011 347.220607 151.635761 
Q 347.271857 151.499511 347.271857 150.999511 
L 347.271857 148.253261 
Q 347.271857 147.885761 347.236857 147.794511 
Q 347.201857 147.702011 347.105607 147.638261 
Q 347.010607 147.573261 346.885607 147.573261 
Q 346.685607 147.573261 346.400607 147.698261 
L 346.330607 147.557011 
L 348.279357 146.667011 
L 348.408107 146.667011 
z
M 350.986857 149.417011 
L 350.986857 149.280761 
Q 351.431857 149.150761 351.603107 149.039511 
Q 351.775607 148.928261 351.900607 148.700761 
Q 352.025607 148.472011 352.025607 148.237011 
Q 352.025607 147.913261 351.789357 147.680761 
Q 351.553107 147.448261 351.201857 147.448261 
Q 350.654357 147.448261 350.271857 148.025761 
L 350.126857 147.975761 
Q 350.408107 147.323261 350.848107 146.995761 
Q 351.288107 146.667011 351.826857 146.667011 
Q 352.376857 146.667011 352.734357 147.003261 
Q 353.091857 147.338261 353.091857 147.788261 
Q 353.091857 148.080761 352.925607 148.353261 
Q 352.760607 148.624511 352.404357 148.830761 
Q 352.861857 149.053261 353.101857 149.379511 
Q 353.341857 149.705761 353.341857 150.198261 
Q 353.341857 151.025761 352.741857 151.607011 
Q 352.143107 152.187011 351.135607 152.187011 
Q 350.463107 152.187011 350.154357 151.963261 
Q 349.931857 151.807011 349.931857 151.562011 
Q 349.931857 151.382011 350.060607 151.255761 
Q 350.189357 151.128261 350.358107 151.128261 
Q 350.486857 151.128261 350.600607 151.182011 
Q 350.663107 151.213261 351.043107 151.524511 
Q 351.424357 151.834511 351.756857 151.834511 
Q 352.045607 151.834511 352.251857 151.607011 
Q 352.459357 151.378261 352.459357 151.025761 
Q 352.459357 150.490761 352.084357 150.039511 
Q 351.709357 149.588261 350.986857 149.417011 
z
" style="fill: #438bb4; stroke: #ffffff; stroke-width: 2"/>
    <path d="M 314.211857 149.292011 
Q 315.399357 150.479511 315.524357 150.760761 
Q 315.649357 151.042011 315.649357 151.198261 
Q 315.649357 151.417011 315.524357 151.604511 
Q 315.399357 151.792011 315.368107 151.792011 
Q 315.211857 151.792011 315.086857 151.260761 
Q 314.868107 150.542011 314.118107 149.354511 
L 314.211857 149.292011 
z
M 311.680607 146.323261 
L 314.461857 146.323261 
L 314.836857 145.948261 
L 315.399357 146.510761 
L 312.211857 146.510761 
L 311.930607 146.573261 
L 311.680607 146.323261 
z
M 312.118107 151.979511 
Q 312.961857 152.135761 313.118107 152.104511 
Q 313.274357 152.073261 313.274357 151.854511 
L 313.274357 148.385761 
L 311.743107 148.385761 
L 311.461857 148.448261 
L 311.211857 148.198261 
L 314.930607 148.198261 
L 315.336857 147.792011 
L 315.930607 148.385761 
L 313.743107 148.385761 
L 313.743107 152.104511 
Q 313.711857 152.604511 313.055607 152.823261 
Q 313.055607 152.448261 312.118107 152.135761 
L 312.118107 151.979511 
z
M 312.149357 149.229511 
L 312.836857 149.635761 
L 312.524357 149.792011 
Q 311.743107 151.198261 310.868107 152.042011 
L 310.774357 151.948261 
Q 311.649357 150.792011 312.149357 149.229511 
z
M 310.336857 148.667011 
Q 310.336857 152.042011 310.368107 152.667011 
L 309.868107 152.854511 
Q 309.899357 151.510761 309.899357 149.167011 
Q 309.430607 150.260761 308.680607 151.198261 
L 308.586857 151.073261 
Q 309.461857 149.667011 309.899357 147.729511 
L 309.118107 147.729511 
L 308.836857 147.792011 
L 308.586857 147.542011 
L 309.899357 147.542011 
Q 309.899357 146.354511 309.868107 145.479511 
L 310.618107 145.854511 
L 310.336857 146.073261 
L 310.336857 147.542011 
L 310.743107 147.542011 
L 311.086857 147.198261 
L 311.618107 147.729511 
L 310.336857 147.729511 
L 310.336857 148.510761 
Q 310.930607 148.823261 311.133107 149.042011 
Q 311.336857 149.260761 311.336857 149.417011 
Q 311.336857 149.510761 311.243107 149.683261 
Q 311.149357 149.854511 311.086857 149.854511 
Q 310.993107 149.854511 310.868107 149.479511 
Q 310.649357 148.979511 310.336857 148.667011 
z
M 319.461857 152.823261 
Q 319.493107 151.698261 319.493107 151.385761 
L 319.493107 147.854511 
Q 318.993107 148.667011 318.336857 149.323261 
L 318.243107 149.260761 
Q 318.868107 148.385761 319.320607 147.308261 
Q 319.774357 146.229511 319.899357 145.604511 
L 320.555607 146.010761 
L 320.305607 146.167011 
Q 320.024357 146.729511 319.836857 147.135761 
L 322.711857 147.135761 
L 323.149357 146.698261 
L 323.774357 147.323261 
L 321.805607 147.323261 
L 321.805607 148.604511 
L 322.493107 148.604511 
L 322.899357 148.198261 
L 323.493107 148.792011 
L 321.805607 148.792011 
L 321.805607 150.260761 
L 322.618107 150.260761 
L 323.024357 149.854511 
L 323.618107 150.448261 
L 321.805607 150.448261 
L 321.805607 151.948261 
L 322.805607 151.948261 
L 323.243107 151.510761 
L 323.868107 152.135761 
L 319.930607 152.135761 
L 319.930607 152.604511 
L 319.461857 152.823261 
z
M 321.368107 147.323261 
L 319.930607 147.323261 
L 319.930607 148.604511 
L 321.368107 148.604511 
L 321.368107 147.323261 
z
M 319.930607 148.792011 
L 319.930607 150.260761 
L 321.368107 150.260761 
L 321.368107 148.792011 
L 319.930607 148.792011 
z
M 319.930607 150.448261 
L 319.930607 151.948261 
L 321.368107 151.948261 
L 321.368107 150.448261 
L 319.930607 150.448261 
z
M 321.086857 145.635761 
L 321.180607 145.573261 
Q 322.086857 146.167011 322.055607 146.448261 
Q 322.024357 146.729511 321.899357 146.839511 
Q 321.774357 146.948261 321.711857 146.948261 
Q 321.586857 146.948261 321.555607 146.635761 
Q 321.461857 146.229511 321.086857 145.635761 
z
M 316.868107 145.979511 
Q 317.930607 146.604511 317.914357 146.902011 
Q 317.899357 147.198261 317.774357 147.339511 
Q 317.649357 147.479511 317.586857 147.479511 
Q 317.493107 147.479511 317.399357 147.167011 
Q 317.274357 146.729511 316.805607 146.042011 
L 316.868107 145.979511 
z
M 316.618107 149.792011 
Q 317.024357 149.792011 317.320607 149.714511 
Q 317.618107 149.635761 318.868107 146.448261 
L 318.993107 146.479511 
Q 318.430607 148.135761 318.118107 149.010761 
Q 317.774357 149.885761 317.743107 150.652011 
Q 317.711857 151.417011 317.743107 151.854511 
Q 317.743107 152.323261 317.508107 152.244511 
Q 317.274357 152.167011 317.180607 152.027011 
Q 317.086857 151.885761 317.086857 151.698261 
Q 317.086857 151.510761 317.118107 151.385761 
Q 317.211857 151.010761 317.274357 150.698261 
Q 317.336857 150.385761 317.226857 150.198261 
Q 317.118107 150.010761 316.618107 149.917011 
L 316.618107 149.792011 
z
M 331.763107 146.655761 
L 331.763107 148.522011 
L 331.618107 148.522011 
Q 331.356857 147.757011 330.833107 147.358261 
Q 330.309357 146.959511 329.688107 146.959511 
Q 329.094357 146.959511 328.699357 147.294511 
Q 328.305607 147.628261 328.141857 148.225761 
Q 327.978107 148.823261 327.978107 149.452011 
Q 327.978107 150.213261 328.156857 150.788261 
Q 328.336857 151.362011 328.736857 151.632011 
Q 329.138107 151.900761 329.688107 151.900761 
Q 329.879357 151.900761 330.080607 151.860761 
Q 330.281857 151.819511 330.493107 151.740761 
L 330.493107 150.639511 
Q 330.493107 150.327011 330.449357 150.235761 
Q 330.406857 150.143261 330.271857 150.069511 
Q 330.138107 149.994511 329.946857 149.994511 
L 329.809357 149.994511 
L 329.809357 149.850761 
L 332.384357 149.850761 
L 332.384357 149.994511 
Q 332.090607 150.014511 331.975607 150.075761 
Q 331.860607 150.135761 331.798107 150.275761 
Q 331.763107 150.350761 331.763107 150.639511 
L 331.763107 151.740761 
Q 331.254357 151.968261 330.705607 152.083261 
Q 330.156857 152.198261 329.566857 152.198261 
Q 328.813107 152.198261 328.314357 151.993261 
Q 327.816857 151.788261 327.435607 151.454511 
Q 327.055607 151.119511 326.840607 150.702011 
Q 326.566857 150.163261 326.566857 149.494511 
Q 326.566857 148.299511 327.406857 147.475761 
Q 328.246857 146.650761 329.520607 146.650761 
Q 329.915607 146.650761 330.231857 146.713261 
Q 330.403107 146.744511 330.788107 146.892011 
Q 331.173107 147.038261 331.243107 147.038261 
Q 331.353107 147.038261 331.446857 146.958261 
Q 331.540607 146.878261 331.618107 146.655761 
L 331.763107 146.655761 
z
M 335.794514 150.565761 
L 333.923264 150.565761 
L 333.700764 151.080761 
Q 333.590764 151.338261 333.590764 151.507011 
Q 333.590764 151.729511 333.770764 151.834511 
Q 333.875764 151.897011 334.289514 151.928261 
L 334.289514 152.073261 
L 332.528264 152.073261 
L 332.528264 151.928261 
Q 332.813264 151.885761 332.997014 151.693261 
Q 333.180764 151.499511 333.450764 150.893261 
L 335.344514 146.667011 
L 335.419514 146.667011 
L 337.329514 151.010761 
Q 337.602014 151.628261 337.778264 151.788261 
Q 337.910764 151.909511 338.153264 151.928261 
L 338.153264 152.073261 
L 335.590764 152.073261 
L 335.590764 151.928261 
L 335.695764 151.928261 
Q 336.004514 151.928261 336.129514 151.843261 
Q 336.215764 151.780761 336.215764 151.663261 
Q 336.215764 151.593261 336.192014 151.518261 
Q 336.184514 151.483261 336.075764 151.225761 
L 335.794514 150.565761 
z
M 335.660764 150.275761 
L 334.872014 148.452011 
L 334.059514 150.275761 
L 335.660764 150.275761 
z
M 341.021857 146.775761 
L 343.501857 146.775761 
L 343.108107 147.784511 
L 341.021857 147.784511 
L 340.823107 148.312011 
Q 342.170607 148.362011 342.896857 148.983261 
Q 343.494357 149.494511 343.494357 150.257011 
Q 343.494357 150.744511 343.216857 151.212011 
Q 342.939357 151.678261 342.435607 151.930761 
Q 341.931857 152.183261 341.330607 152.183261 
Q 340.681857 152.183261 340.334357 151.940761 
Q 340.091857 151.768261 340.091857 151.549511 
Q 340.091857 151.382011 340.218107 151.253261 
Q 340.345607 151.124511 340.514357 151.124511 
Q 340.666857 151.124511 340.823107 151.187011 
Q 340.979357 151.249511 341.358107 151.514511 
Q 341.595607 151.678261 341.768107 151.740761 
Q 341.889357 151.788261 342.041857 151.788261 
Q 342.361857 151.788261 342.585607 151.554511 
Q 342.810607 151.319511 342.810607 150.990761 
Q 342.810607 150.303261 342.123107 149.874511 
Q 341.435607 149.444511 340.389357 149.444511 
Q 340.283107 149.444511 340.073107 149.448261 
L 341.021857 146.775761 
z
M 344.803107 150.869511 
Q 345.076857 150.869511 345.265607 151.062011 
Q 345.455607 151.253261 345.455607 151.522011 
Q 345.455607 151.792011 345.264357 151.982011 
Q 345.073107 152.170761 344.803107 152.170761 
Q 344.533107 152.170761 344.343107 151.982011 
Q 344.154357 151.792011 344.154357 151.522011 
Q 344.154357 151.253261 344.343107 151.062011 
Q 344.533107 150.869511 344.803107 150.869511 
z
M 348.408107 146.667011 
L 348.408107 150.999511 
Q 348.408107 151.487011 348.450607 151.622011 
Q 348.494357 151.757011 348.630607 151.843261 
Q 348.768107 151.928261 349.069357 151.928261 
L 349.189357 151.928261 
L 349.189357 152.073261 
L 346.400607 152.073261 
L 346.400607 151.928261 
L 346.541857 151.928261 
Q 346.881857 151.928261 347.025607 151.850761 
Q 347.170607 151.772011 347.220607 151.635761 
Q 347.271857 151.499511 347.271857 150.999511 
L 347.271857 148.253261 
Q 347.271857 147.885761 347.236857 147.794511 
Q 347.201857 147.702011 347.105607 147.638261 
Q 347.010607 147.573261 346.885607 147.573261 
Q 346.685607 147.573261 346.400607 147.698261 
L 346.330607 147.557011 
L 348.279357 146.667011 
L 348.408107 146.667011 
z
M 350.986857 149.417011 
L 350.986857 149.280761 
Q 351.431857 149.150761 351.603107 149.039511 
Q 351.775607 148.928261 351.900607 148.700761 
Q 352.025607 148.472011 352.025607 148.237011 
Q 352.025607 147.913261 351.789357 147.680761 
Q 351.553107 147.448261 351.201857 147.448261 
Q 350.654357 147.448261 350.271857 148.025761 
L 350.126857 147.975761 
Q 350.408107 147.323261 350.848107 146.995761 
Q 351.288107 146.667011 351.826857 146.667011 
Q 352.376857 146.667011 352.734357 147.003261 
Q 353.091857 147.338261 353.091857 147.788261 
Q 353.091857 148.080761 352.925607 148.353261 
Q 352.760607 148.624511 352.404357 148.830761 
Q 352.861857 149.053261 353.101857 149.379511 
Q 353.341857 149.705761 353.341857 150.198261 
Q 353.341857 151.025761 352.741857 151.607011 
Q 352.143107 152.187011 351.135607 152.187011 
Q 350.463107 152.187011 350.154357 151.963261 
Q 349.931857 151.807011 349.931857 151.562011 
Q 349.931857 151.382011 350.060607 151.255761 
Q 350.189357 151.128261 350.358107 151.128261 
Q 350.486857 151.128261 350.600607 151.182011 
Q 350.663107 151.213261 351.043107 151.524511 
Q 351.424357 151.834511 351.756857 151.834511 
Q 352.045607 151.834511 352.251857 151.607011 
Q 352.459357 151.378261 352.459357 151.025761 
Q 352.459357 150.490761 352.084357 150.039511 
Q 351.709357 149.588261 350.986857 149.417011 
z
" style="fill: #438bb4"/>
   </g>
   <g id="text_21">
    <g id="patch_5">
     <path d="M 161.53664 43.419035 
L 246.217421 43.419035 
Q 249.142421 43.419035 249.142421 40.494035 
L 249.142421 17.890285 
Q 249.142421 14.965285 246.217421 14.965285 
L 161.53664 14.965285 
Q 158.61164 14.965285 158.61164 17.890285 
L 158.61164 40.494035 
Q 158.61164 43.419035 161.53664 43.419035 
z
" style="fill: #ffffff; opacity: 0.85; stroke: #b2b2b2; stroke-width: 0.5; stroke-linejoin: miter"/>
    </g>
    <text style="font-size: 6.5px; font-family: 'Times New Roman', 'STIXGeneral', 'DejaVu Serif', 'SimSun', 'STSong', 'STZhongsong', 'Microsoft YaHei', 'SimHei'" transform="translate(161.53664 22.517473)">种群 100，交叉 0.8 / 变异 0.05</text>
    <text style="font-size: 6.5px; font-family: 'Times New Roman', 'STIXGeneral', 'DejaVu Serif', 'SimSun', 'STSong', 'STZhongsong', 'Microsoft YaHei', 'SimHei'" transform="translate(164.399687 30.848644)">收敛判据：相对变化 &lt; 0.1%</text>
    <text style="font-size: 6.5px; font-family: 'Times New Roman', 'STIXGeneral', 'DejaVu Serif', 'SimSun', 'STSong', 'STZhongsong', 'Microsoft YaHei', 'SimHei'" transform="translate(177.424569 39.103644)">终值 5.130 vs 4.919</text>
   </g>
  </g>
 </g>
 <defs>
  <clipPath id="pd133885b48">
   <rect x="54.491204" y="14.625" width="298.771654" height="163.264252"/>
  </clipPath>
 </defs>
</svg>
